<?xml version="1.0" encoding="UTF-8"?>
<!DOCTYPE svg PUBLIC "-//W3C//DTD SVG 1.1//EN" "http://www.w3.org/Graphics/SVG/1.1/DTD/svg11.dtd">
<svg version="1.1" xmlns="http://www.w3.org/2000/svg" xmlns:xlink="http://www.w3.org/1999/xlink" x="0" y="0" width="800" height="1200" viewBox="0, 0, 800, 1200">
  <g id="Layer_1">
    <path d="M650.09,221.908 L650.399,1081.722" fill-opacity="0" stroke="#DD3939" stroke-width="1.25"/>
    <path d="M635.234,811.228 L664.582,811.228" fill-opacity="0" stroke="#DD3939" stroke-width="1.25"/>
    <path d="M635.234,651.82 L664.582,651.82" fill-opacity="0" stroke="#DD3939" stroke-width="1.25"/>
    <path d="M635.234,526.136 L664.582,526.136" fill-opacity="0" stroke="#DD3939" stroke-width="1.25"/>
    <path d="M635.234,291.567 L664.582,291.567" fill-opacity="0" stroke="#DD3939" stroke-width="1.25"/>
    <path d="M636.351,221.908 L665.699,221.908" fill-opacity="0" stroke="#DD3939" stroke-width="1.25"/>
    <g id="Layer_1">
      <path d="M680.455,916.792 C680.72,915.732 680.872,915.505 681.326,915.392 C681.667,915.316 682.916,915.316 683.711,915.316 C687.535,915.316 689.238,915.467 689.238,918.42 C689.238,918.988 689.087,920.465 688.935,921.449 C688.898,921.6 688.822,922.055 688.822,922.168 C688.822,922.395 688.935,922.66 689.276,922.66 C689.693,922.66 689.768,922.357 689.844,921.79 L690.866,915.202 C690.904,915.051 690.942,914.672 690.942,914.559 C690.942,914.142 690.563,914.142 689.92,914.142 L668.909,914.142 C668,914.142 667.962,914.18 667.697,914.899 L665.426,921.562 C665.388,921.638 665.199,922.168 665.199,922.244 C665.199,922.471 665.388,922.66 665.653,922.66 C666.031,922.66 666.069,922.471 666.296,921.865 C668.341,915.997 669.325,915.316 674.928,915.316 L676.404,915.316 C677.464,915.316 677.464,915.467 677.464,915.77 C677.464,915.997 677.351,916.452 677.313,916.565 L672.24,936.781 C671.899,938.182 671.786,938.599 667.735,938.599 C666.372,938.599 666.145,938.599 666.145,939.318 C666.145,939.772 666.561,939.772 666.789,939.772 C667.811,939.772 668.871,939.696 669.893,939.696 C670.953,939.696 672.051,939.659 673.111,939.659 C674.171,939.659 675.231,939.696 676.253,939.696 C677.351,939.696 678.487,939.772 679.547,939.772 C679.925,939.772 680.38,939.772 680.38,939.015 C680.38,938.599 680.077,938.599 679.092,938.599 C678.146,938.599 677.654,938.599 676.669,938.523 C675.572,938.409 675.269,938.296 675.269,937.69 C675.269,937.652 675.269,937.463 675.42,936.895 z" fill="#D11D00"/>
      <path d="M690.389,936.787 C690.389,934.614 690.574,932.653 691.581,931.037 C692.482,929.606 693.913,928.625 695.609,928.625 C696.404,928.625 697.464,928.837 697.994,929.553 C697.332,929.606 696.775,930.056 696.775,930.825 C696.775,931.487 697.226,932.07 698.021,932.07 C698.816,932.07 699.293,931.54 699.293,930.772 C699.293,929.235 698.18,927.857 695.556,927.857 C691.74,927.857 687.845,931.355 687.845,937.052 C687.845,943.916 691.078,945.983 693.993,945.983 C697.226,945.983 700.035,943.519 700.035,940.047 C700.035,936.681 697.358,934.19 694.258,934.19 C692.138,934.19 690.972,935.595 690.389,936.787 z M693.993,945.135 C692.668,945.135 691.634,944.367 691.078,943.201 C690.68,942.406 690.468,941.081 690.468,939.491 C690.468,936.92 692.005,934.932 694.125,934.932 C695.344,934.932 696.166,935.409 696.828,936.39 C697.464,937.397 697.491,938.51 697.491,940.047 C697.491,941.558 697.491,942.671 696.775,943.704 C696.139,944.632 695.291,945.135 693.993,945.135 z" fill="#D11D00"/>
    </g>
    <g id="Layer_1">
      <path d="M684.152,712.505 C684.417,711.445 684.569,711.218 685.023,711.105 C685.364,711.029 686.613,711.029 687.408,711.029 C691.232,711.029 692.935,711.18 692.935,714.133 C692.935,714.701 692.784,716.177 692.632,717.162 C692.595,717.313 692.519,717.768 692.519,717.881 C692.519,718.108 692.632,718.373 692.973,718.373 C693.39,718.373 693.465,718.07 693.541,717.503 L694.563,710.915 C694.601,710.764 694.639,710.385 694.639,710.272 C694.639,709.855 694.26,709.855 693.617,709.855 L672.606,709.855 C671.697,709.855 671.659,709.893 671.394,710.612 L669.123,717.275 C669.085,717.351 668.896,717.881 668.896,717.957 C668.896,718.184 669.085,718.373 669.35,718.373 C669.728,718.373 669.766,718.184 669.993,717.578 C672.038,711.71 673.022,711.029 678.625,711.029 L680.101,711.029 C681.161,711.029 681.161,711.18 681.161,711.483 C681.161,711.71 681.048,712.165 681.01,712.278 L675.937,732.494 C675.596,733.895 675.483,734.311 671.432,734.311 C670.069,734.311 669.842,734.311 669.842,735.031 C669.842,735.485 670.258,735.485 670.486,735.485 C671.508,735.485 672.568,735.409 673.59,735.409 C674.65,735.409 675.748,735.371 676.808,735.371 C677.868,735.371 678.928,735.409 679.95,735.409 C681.048,735.409 682.184,735.485 683.244,735.485 C683.622,735.485 684.077,735.485 684.077,734.728 C684.077,734.311 683.774,734.311 682.789,734.311 C681.843,734.311 681.351,734.311 680.366,734.236 C679.269,734.122 678.966,734.009 678.966,733.403 C678.966,733.365 678.966,733.176 679.117,732.608 z" fill="#D11D00"/>
      <path d="M694.218,726.379 C695.57,726.723 696.365,726.723 696.789,726.723 C700.287,726.723 702.354,724.338 702.354,723.941 C702.354,723.649 702.168,723.57 702.036,723.57 C701.983,723.57 701.93,723.57 701.824,723.649 C701.188,723.888 699.783,724.418 697.822,724.418 C697.08,724.418 695.676,724.365 693.953,723.702 C693.688,723.57 693.635,723.57 693.609,723.57 C693.264,723.57 693.264,723.861 693.264,724.285 L693.264,732.103 C693.264,732.553 693.264,732.871 693.688,732.871 C693.927,732.871 693.953,732.818 694.218,732.5 C695.358,731.043 696.974,730.831 697.902,730.831 C699.492,730.831 700.207,732.103 700.34,732.315 C700.817,733.189 700.976,734.196 700.976,735.733 C700.976,736.528 700.976,738.092 700.181,739.258 C699.518,740.212 698.379,740.848 697.08,740.848 C695.358,740.848 693.582,739.894 692.92,738.145 C693.927,738.224 694.43,737.562 694.43,736.846 C694.43,735.707 693.45,735.495 693.105,735.495 C693.052,735.495 691.78,735.495 691.78,736.926 C691.78,739.311 693.953,741.696 697.133,741.696 C700.525,741.696 703.493,739.178 703.493,735.839 C703.493,732.845 701.214,730.089 697.928,730.089 C696.762,730.089 695.384,730.38 694.218,731.387 z" fill="#D11D00"/>
    </g>
    <g id="Layer_1">
      <path d="M684.752,570.995 C685.017,569.935 685.168,569.708 685.623,569.594 C685.963,569.518 687.213,569.518 688.008,569.518 C691.831,569.518 693.535,569.67 693.535,572.623 C693.535,573.191 693.383,574.667 693.232,575.651 C693.194,575.803 693.118,576.257 693.118,576.371 C693.118,576.598 693.232,576.863 693.573,576.863 C693.989,576.863 694.065,576.56 694.141,575.992 L695.163,569.405 C695.201,569.253 695.238,568.875 695.238,568.761 C695.238,568.345 694.86,568.345 694.216,568.345 L673.205,568.345 C672.297,568.345 672.259,568.383 671.994,569.102 L669.722,575.765 C669.684,575.841 669.495,576.371 669.495,576.446 C669.495,576.673 669.684,576.863 669.949,576.863 C670.328,576.863 670.366,576.673 670.593,576.068 C672.637,570.2 673.622,569.518 679.225,569.518 L680.701,569.518 C681.761,569.518 681.761,569.67 681.761,569.973 C681.761,570.2 681.648,570.654 681.61,570.768 L676.537,590.984 C676.196,592.384 676.082,592.801 672.032,592.801 C670.669,592.801 670.442,592.801 670.442,593.52 C670.442,593.974 670.858,593.974 671.085,593.974 C672.107,593.974 673.167,593.899 674.19,593.899 C675.25,593.899 676.347,593.861 677.407,593.861 C678.467,593.861 679.527,593.899 680.55,593.899 C681.648,593.899 682.783,593.974 683.843,593.974 C684.222,593.974 684.676,593.974 684.676,593.217 C684.676,592.801 684.373,592.801 683.389,592.801 C682.443,592.801 681.95,592.801 680.966,592.725 C679.868,592.612 679.565,592.498 679.565,591.892 C679.565,591.854 679.565,591.665 679.717,591.097 z" fill="#D11D00"/>
      <path d="M704.729,595.309 L704.729,594.355 L701.787,594.355 L701.787,582.536 C701.787,581.98 701.787,581.794 701.204,581.794 C700.886,581.794 700.78,581.794 700.515,582.165 L691.744,594.355 L691.744,595.309 L699.535,595.309 L699.535,597.482 C699.535,598.383 699.535,598.701 697.388,598.701 L696.673,598.701 L696.673,599.656 C697.998,599.603 699.694,599.549 700.648,599.549 C701.628,599.549 703.324,599.603 704.649,599.656 L704.649,598.701 L703.934,598.701 C701.787,598.701 701.787,598.383 701.787,597.482 L701.787,595.309 z M699.72,584.656 L699.72,594.355 L692.724,594.355 z" fill="#D11D00"/>
    </g>
    <g id="Layer_1">
      <path d="M687.856,390.005 C688.121,388.945 688.273,388.717 688.727,388.604 C689.068,388.528 690.317,388.528 691.112,388.528 C694.936,388.528 696.639,388.68 696.639,391.633 C696.639,392.2 696.488,393.677 696.336,394.661 C696.299,394.813 696.223,395.267 696.223,395.38 C696.223,395.608 696.336,395.873 696.677,395.873 C697.094,395.873 697.169,395.57 697.245,395.002 L698.267,388.415 C698.305,388.263 698.343,387.885 698.343,387.771 C698.343,387.355 697.964,387.355 697.321,387.355 L676.31,387.355 C675.401,387.355 675.363,387.392 675.098,388.112 L672.827,394.775 C672.789,394.85 672.6,395.38 672.6,395.456 C672.6,395.683 672.789,395.873 673.054,395.873 C673.432,395.873 673.47,395.683 673.697,395.078 C675.742,389.21 676.726,388.528 682.329,388.528 L683.805,388.528 C684.865,388.528 684.865,388.68 684.865,388.982 C684.865,389.21 684.752,389.664 684.714,389.777 L679.641,409.994 C679.3,411.394 679.187,411.811 675.136,411.811 C673.773,411.811 673.546,411.811 673.546,412.53 C673.546,412.984 673.962,412.984 674.19,412.984 C675.212,412.984 676.272,412.909 677.294,412.909 C678.354,412.909 679.452,412.871 680.512,412.871 C681.572,412.871 682.632,412.909 683.654,412.909 C684.752,412.909 685.888,412.984 686.948,412.984 C687.326,412.984 687.781,412.984 687.781,412.227 C687.781,411.811 687.478,411.811 686.493,411.811 C685.547,411.811 685.055,411.811 684.07,411.735 C682.973,411.621 682.67,411.508 682.67,410.902 C682.67,410.864 682.67,410.675 682.821,410.107 z" fill="#D11D00"/>
      <path d="M701.049,409.814 C703.116,409.814 704.6,411.245 704.6,414.081 C704.6,417.367 702.692,418.347 701.155,418.347 C700.095,418.347 697.763,418.056 696.65,416.492 C697.896,416.439 698.187,415.565 698.187,415.008 C698.187,414.16 697.551,413.551 696.73,413.551 C695.988,413.551 695.246,414.001 695.246,415.088 C695.246,417.579 698.002,419.195 701.208,419.195 C704.892,419.195 707.436,416.731 707.436,414.081 C707.436,412.014 705.74,409.947 702.825,409.337 C705.607,408.33 706.614,406.343 706.614,404.726 C706.614,402.633 704.203,401.069 701.261,401.069 C698.32,401.069 696.067,402.5 696.067,404.62 C696.067,405.521 696.65,406.025 697.445,406.025 C698.267,406.025 698.797,405.415 698.797,404.673 C698.797,403.905 698.267,403.348 697.445,403.295 C698.373,402.129 700.201,401.838 701.182,401.838 C702.374,401.838 704.044,402.421 704.044,404.726 C704.044,405.839 703.673,407.058 702.984,407.88 C702.109,408.887 701.367,408.94 700.042,409.019 C699.38,409.072 699.327,409.072 699.194,409.099 C699.141,409.099 698.929,409.152 698.929,409.443 C698.929,409.814 699.168,409.814 699.618,409.814 z" fill="#D11D00"/>
    </g>
    <g id="Layer_1">
      <path d="M682.917,244.73 C683.182,243.67 683.333,243.443 683.787,243.329 C684.128,243.254 685.377,243.254 686.172,243.254 C689.996,243.254 691.7,243.405 691.7,246.358 C691.7,246.926 691.548,248.402 691.397,249.387 C691.359,249.538 691.283,249.992 691.283,250.106 C691.283,250.333 691.397,250.598 691.738,250.598 C692.154,250.598 692.23,250.295 692.305,249.727 L693.328,243.14 C693.365,242.989 693.403,242.61 693.403,242.497 C693.403,242.08 693.025,242.08 692.381,242.08 L671.37,242.08 C670.461,242.08 670.424,242.118 670.159,242.837 L667.887,249.5 C667.849,249.576 667.66,250.106 667.66,250.182 C667.66,250.409 667.849,250.598 668.114,250.598 C668.493,250.598 668.531,250.409 668.758,249.803 C670.802,243.935 671.786,243.254 677.389,243.254 L678.866,243.254 C679.926,243.254 679.926,243.405 679.926,243.708 C679.926,243.935 679.812,244.39 679.774,244.503 L674.701,264.719 C674.361,266.12 674.247,266.536 670.196,266.536 C668.834,266.536 668.606,266.536 668.606,267.256 C668.606,267.71 669.023,267.71 669.25,267.71 C670.272,267.71 671.332,267.634 672.354,267.634 C673.414,267.634 674.512,267.596 675.572,267.596 C676.632,267.596 677.692,267.634 678.714,267.634 C679.812,267.634 680.948,267.71 682.008,267.71 C682.387,267.71 682.841,267.71 682.841,266.953 C682.841,266.536 682.538,266.536 681.554,266.536 C680.607,266.536 680.115,266.536 679.131,266.461 C678.033,266.347 677.73,266.233 677.73,265.628 C677.73,265.59 677.73,265.401 677.882,264.833 z" fill="#D11D00"/>
      <path d="M702.258,268.568 L701.357,268.568 C701.277,269.151 701.012,270.714 700.668,270.979 C700.456,271.138 698.415,271.138 698.044,271.138 L693.168,271.138 C695.951,268.674 696.878,267.932 698.468,266.686 C700.429,265.123 702.258,263.48 702.258,260.962 C702.258,257.756 699.449,255.795 696.057,255.795 C692.771,255.795 690.544,258.1 690.544,260.538 C690.544,261.89 691.684,262.022 691.949,262.022 C692.585,262.022 693.354,261.572 693.354,260.618 C693.354,260.141 693.168,259.213 691.79,259.213 C692.612,257.332 694.414,256.749 695.659,256.749 C698.309,256.749 699.687,258.816 699.687,260.962 C699.687,263.268 698.044,265.096 697.196,266.05 L690.809,272.357 C690.544,272.596 690.544,272.649 690.544,273.391 L701.463,273.391 z" fill="#D11D00"/>
    </g>
    <path d="M636.351,1081.722 L665.699,1081.722" fill-opacity="0" stroke="#DD3939" stroke-width="1.25"/>
    <g>
      <path d="M123.982,1081.222 C111.058,1081.222 100.581,1070.972 100.581,1058.328 C100.581,1045.683 111.058,1035.433 123.982,1035.433 C136.906,1035.433 147.383,1045.683 147.383,1058.328 C147.383,1070.972 136.906,1081.222 123.982,1081.222 z" fill="#FFFFFF"/>
      <path d="M124.482,1081.722 C111.558,1081.722 101.081,1071.472 101.081,1058.828 C101.081,1046.183 111.558,1035.933 124.482,1035.933 C137.406,1035.933 147.883,1046.183 147.883,1058.828 C147.883,1071.472 137.406,1081.722 124.482,1081.722 z" fill-opacity="0" stroke="#000000" stroke-width="1"/>
    </g>
    <g>
      <path d="M564.238,1081.222 C551.314,1081.222 540.837,1070.972 540.837,1058.328 C540.837,1045.683 551.314,1035.433 564.238,1035.433 C577.162,1035.433 587.639,1045.683 587.639,1058.328 C587.639,1070.972 577.162,1081.222 564.238,1081.222 z" fill="#FFFFFF"/>
      <path d="M564.738,1081.722 C551.814,1081.722 541.337,1071.472 541.337,1058.828 C541.337,1046.183 551.814,1035.933 564.738,1035.933 C577.662,1035.933 588.139,1046.183 588.139,1058.828 C588.139,1071.472 577.662,1081.722 564.738,1081.722 z" fill-opacity="0" stroke="#000000" stroke-width="1"/>
    </g>
    <g>
      <path d="M478.573,1081.222 C465.649,1081.222 455.172,1070.972 455.172,1058.328 C455.172,1045.683 465.649,1035.433 478.573,1035.433 C491.497,1035.433 501.974,1045.683 501.974,1058.328 C501.974,1070.972 491.497,1081.222 478.573,1081.222 z" fill="#FFFFFF"/>
      <path d="M479.073,1081.722 C466.149,1081.722 455.672,1071.472 455.672,1058.828 C455.672,1046.183 466.149,1035.933 479.073,1035.933 C491.997,1035.933 502.474,1046.183 502.474,1058.828 C502.474,1071.472 491.997,1081.722 479.073,1081.722 z" fill-opacity="0" stroke="#000000" stroke-width="1"/>
    </g>
    <g>
      <path d="M387.843,1081.222 C374.919,1081.222 364.442,1070.972 364.442,1058.328 C364.442,1045.683 374.919,1035.433 387.843,1035.433 C400.767,1035.433 411.244,1045.683 411.244,1058.328 C411.244,1070.972 400.767,1081.222 387.843,1081.222 z" fill="#FFFFFF"/>
      <path d="M388.343,1081.722 C375.419,1081.722 364.942,1071.472 364.942,1058.828 C364.942,1046.183 375.419,1035.933 388.343,1035.933 C401.267,1035.933 411.744,1046.183 411.744,1058.828 C411.744,1071.472 401.267,1081.722 388.343,1081.722 z" fill-opacity="0" stroke="#000000" stroke-width="1"/>
    </g>
    <g>
      <path d="M304.426,1081.222 C291.502,1081.222 281.025,1070.972 281.025,1058.328 C281.025,1045.683 291.502,1035.433 304.426,1035.433 C317.35,1035.433 327.827,1045.683 327.827,1058.328 C327.827,1070.972 317.35,1081.222 304.426,1081.222 z" fill="#FFFFFF"/>
      <path d="M304.926,1081.722 C292.002,1081.722 281.525,1071.472 281.525,1058.828 C281.525,1046.183 292.002,1035.933 304.926,1035.933 C317.85,1035.933 328.327,1046.183 328.327,1058.828 C328.327,1071.472 317.85,1081.722 304.926,1081.722 z" fill-opacity="0" stroke="#000000" stroke-width="1"/>
    </g>
    <g>
      <path d="M217.389,1080.635 C204.465,1080.635 193.988,1070.385 193.988,1057.74 C193.988,1045.095 204.465,1034.845 217.389,1034.845 C230.313,1034.845 240.79,1045.095 240.79,1057.74 C240.79,1070.385 230.313,1080.635 217.389,1080.635 z" fill="#FFFFFF"/>
      <path d="M217.889,1081.135 C204.965,1081.135 194.488,1070.885 194.488,1058.24 C194.488,1045.595 204.965,1035.345 217.889,1035.345 C230.813,1035.345 241.29,1045.595 241.29,1058.24 C241.29,1070.885 230.813,1081.135 217.889,1081.135 z" fill-opacity="0" stroke="#000000" stroke-width="1"/>
    </g>
    <path d="M125.416,1047.309 C125.416,1046.448 125.416,1046.376 124.591,1046.376 C122.367,1048.672 119.211,1048.672 118.063,1048.672 L118.063,1049.784 C118.781,1049.784 120.897,1049.784 122.762,1048.851 L122.762,1067.429 C122.762,1068.72 122.654,1069.151 119.426,1069.151 L118.279,1069.151 L118.279,1070.263 C119.534,1070.155 122.654,1070.155 124.089,1070.155 C125.523,1070.155 128.644,1070.155 129.899,1070.263 L129.899,1069.151 L128.751,1069.151 C125.523,1069.151 125.416,1068.756 125.416,1067.429 z" fill="#000000" id="Layer_1"/>
    <path d="M212.995,1066.92 L216.797,1063.226 C222.392,1058.277 224.544,1056.34 224.544,1052.753 C224.544,1048.665 221.316,1045.796 216.94,1045.796 C212.887,1045.796 210.233,1049.095 210.233,1052.287 C210.233,1054.296 212.027,1054.296 212.134,1054.296 C212.744,1054.296 213.999,1053.865 213.999,1052.395 C213.999,1051.462 213.354,1050.53 212.098,1050.53 C211.812,1050.53 211.74,1050.53 211.632,1050.566 C212.457,1048.234 214.394,1046.907 216.474,1046.907 C219.738,1046.907 221.28,1049.812 221.28,1052.753 C221.28,1055.623 219.487,1058.456 217.514,1060.68 L210.628,1068.355 C210.233,1068.749 210.233,1068.821 210.233,1069.682 L223.539,1069.682 L224.544,1063.441 L223.647,1063.441 C223.468,1064.517 223.217,1066.095 222.858,1066.633 C222.607,1066.92 220.24,1066.92 219.451,1066.92 z" fill="#000000" id="Layer_1"/>
    <path d="M305.879,1057.251 C308.82,1056.283 310.9,1053.772 310.9,1050.939 C310.9,1047.998 307.744,1045.989 304.301,1045.989 C300.678,1045.989 297.952,1048.141 297.952,1050.867 C297.952,1052.05 298.741,1052.732 299.781,1052.732 C300.893,1052.732 301.611,1051.943 301.611,1050.903 C301.611,1049.11 299.925,1049.11 299.387,1049.11 C300.499,1047.352 302.866,1046.886 304.157,1046.886 C305.628,1046.886 307.6,1047.675 307.6,1050.903 C307.6,1051.333 307.528,1053.413 306.596,1054.991 C305.52,1056.713 304.301,1056.821 303.404,1056.856 C303.117,1056.892 302.256,1056.964 302.005,1056.964 C301.718,1057 301.467,1057.036 301.467,1057.394 C301.467,1057.789 301.718,1057.789 302.328,1057.789 L303.906,1057.789 C306.847,1057.789 308.174,1060.228 308.174,1063.743 C308.174,1068.62 305.699,1069.66 304.121,1069.66 C302.579,1069.66 299.889,1069.051 298.634,1066.935 C299.889,1067.114 301.001,1066.325 301.001,1064.962 C301.001,1063.671 300.033,1062.954 298.992,1062.954 C298.132,1062.954 296.984,1063.456 296.984,1065.034 C296.984,1068.297 300.319,1070.665 304.229,1070.665 C308.604,1070.665 311.868,1067.401 311.868,1063.743 C311.868,1060.802 309.609,1058.004 305.879,1057.251 z" fill="#000000" id="Layer_1"/>
    <path d="M389.439,1064.543 L389.439,1067.664 C389.439,1068.955 389.367,1069.349 386.713,1069.349 L385.96,1069.349 L385.96,1070.461 C387.43,1070.354 389.295,1070.354 390.802,1070.354 C392.308,1070.354 394.209,1070.354 395.679,1070.461 L395.679,1069.349 L394.926,1069.349 C392.272,1069.349 392.2,1068.955 392.2,1067.664 L392.2,1064.543 L395.787,1064.543 L395.787,1063.432 L392.2,1063.432 L392.2,1047.113 C392.2,1046.396 392.2,1046.18 391.627,1046.18 C391.304,1046.18 391.196,1046.18 390.909,1046.611 L379.899,1063.432 L379.899,1064.543 z M389.654,1063.432 L380.903,1063.432 L389.654,1050.054 z" fill="#000000" id="Layer_1"/>
    <path d="M485.892,1062.66 C485.892,1058.392 482.951,1054.806 479.077,1054.806 C477.356,1054.806 475.814,1055.38 474.522,1056.635 L474.522,1049.641 C475.24,1049.856 476.423,1050.107 477.571,1050.107 C481.982,1050.107 484.493,1046.844 484.493,1046.377 C484.493,1046.162 484.385,1045.983 484.134,1045.983 C484.098,1045.983 484.027,1045.983 483.847,1046.091 C483.13,1046.413 481.373,1047.131 478.97,1047.131 C477.535,1047.131 475.885,1046.88 474.2,1046.126 C473.913,1046.019 473.841,1046.019 473.769,1046.019 C473.411,1046.019 473.411,1046.306 473.411,1046.88 L473.411,1057.496 C473.411,1058.141 473.411,1058.428 473.913,1058.428 C474.164,1058.428 474.235,1058.321 474.379,1058.105 C474.773,1057.532 476.1,1055.595 479.006,1055.595 C480.871,1055.595 481.767,1057.245 482.054,1057.89 C482.628,1059.217 482.7,1060.616 482.7,1062.409 C482.7,1063.665 482.7,1065.817 481.839,1067.323 C480.978,1068.722 479.651,1069.654 478.001,1069.654 C475.383,1069.654 473.339,1067.753 472.729,1065.637 C472.837,1065.673 472.944,1065.709 473.339,1065.709 C474.522,1065.709 475.132,1064.812 475.132,1063.952 C475.132,1063.091 474.522,1062.194 473.339,1062.194 C472.837,1062.194 471.581,1062.445 471.581,1064.095 C471.581,1067.179 474.056,1070.658 478.073,1070.658 C482.233,1070.658 485.892,1067.215 485.892,1062.66 z" fill="#000000" id="Layer_1"/>
    <path d="M560.788,1057.525 L560.788,1056.664 C560.788,1047.59 565.235,1046.299 567.065,1046.299 C567.925,1046.299 569.432,1046.514 570.221,1047.734 C569.683,1047.734 568.248,1047.734 568.248,1049.347 C568.248,1050.459 569.109,1050.997 569.898,1050.997 C570.472,1050.997 571.548,1050.674 571.548,1049.276 C571.548,1047.124 569.97,1045.402 566.993,1045.402 C562.402,1045.402 557.56,1050.029 557.56,1057.955 C557.56,1067.531 561.721,1070.078 565.056,1070.078 C569.037,1070.078 572.444,1066.706 572.444,1061.972 C572.444,1057.417 569.252,1053.974 565.271,1053.974 C562.832,1053.974 561.505,1055.803 560.788,1057.525 z M565.056,1069.073 C562.797,1069.073 561.721,1066.922 561.505,1066.383 C560.86,1064.698 560.86,1061.829 560.86,1061.183 C560.86,1058.385 562.008,1054.799 565.235,1054.799 C565.809,1054.799 567.459,1054.799 568.571,1057.023 C569.216,1058.35 569.216,1060.179 569.216,1061.936 C569.216,1063.658 569.216,1065.451 568.607,1066.742 C567.531,1068.894 565.881,1069.073 565.056,1069.073 z" fill="#000000" id="Layer_1"/>
    <path d="M564.849,811.538 L564.628,1035.933" fill-opacity="0" stroke="#006CAA" stroke-width="1.5"/>
    <path d="M386.985,651.82 L387.233,1035.932" fill-opacity="0" stroke="#006CAA" stroke-width="1.5"/>
    <path d="M479.184,810.951 L478.963,1035.345" fill-opacity="0" stroke="#006CAA" stroke-width="1.5"/>
    <path d="M306.595,974.685 L306.816,1035.344" fill-opacity="0" stroke="#F37B00" stroke-width="1.5"/>
    <path d="M220.78,291.568 L220.778,1035.346" fill-opacity="0" stroke="#F37B00" stroke-width="1.5"/>
    <path d="M124.372,875.005 L124.372,1035.346" fill-opacity="0" stroke="#F37B00" stroke-width="1.5"/>
    <path d="M124.372,218.719 L124.372,875.005" fill-opacity="0" stroke="#006CAA" stroke-width="1.5"/>
    <path d="M479.184,810.951 L564.849,811.538" fill-opacity="0" stroke="#006CAA" stroke-width="1.5"/>
    <path d="M523.167,810.951 L523.167,757.98" fill-opacity="0" stroke="#006CAA" stroke-width="1.5"/>
    <path d="M523.167,526.136 L522.971,757.981" fill-opacity="0" stroke="#F37B00" stroke-width="1.5"/>
    <path d="M220.778,291.568 L434.696,291.567" fill-opacity="0" stroke="#F37B00" stroke-width="1.5"/>
    <path d="M124.372,218.719 L328.327,218.719" fill-opacity="0" stroke="#006CAA" stroke-width="1.5"/>
    <path d="M233.539,219.908 L234.29,90.129" fill-opacity="0" stroke="#006CAA" stroke-width="1.5"/>
    <path d="M328.327,261.379 L328.327,218.719" fill-opacity="0" stroke="#006CAA" stroke-width="1.5"/>
    <path d="M306.595,651.82 L306.595,974.686" fill-opacity="0" stroke="#006CAA" stroke-width="1.5"/>
    <path d="M306.595,651.82 L386.985,651.82" fill-opacity="0" stroke="#006CAA" stroke-width="1.5"/>
    <path d="M346.79,650.914 L346.447,587.162" fill-opacity="0" stroke="#006CAA" stroke-width="1.5"/>
    <path d="M346.447,526.136 L346.692,587.162" fill-opacity="0" stroke="#F37B00" stroke-width="1.5"/>
    <path d="M346.447,526.136 L523.167,526.136" fill-opacity="0" stroke="#F37B00" stroke-width="1.5"/>
    <path d="M434.697,291.567 L434.917,526.136" fill-opacity="0" stroke="#F37B00" stroke-width="1.5"/>
    <path d="M328.327,261.379 L328.327,291.567" fill-opacity="0" stroke="#F37B00" stroke-width="1.5"/>
  </g>
</svg>
